<?xml version="1.0" encoding="UTF-8"?>
<svg id="Laag_1" data-name="Laag 1" xmlns="http://www.w3.org/2000/svg" viewBox="0 0 146.68 24.97">
  <defs>
    <style>
      .cls-1 {
        font-family: BigCaslon-Medium, 'Big Caslon';
        font-size: 18px;
        font-weight: 500;
      }

      .cls-1, .cls-2 {
        fill: #1d1d1b;
      }

      .cls-3 {
        fill: #3aaa35;
      }

      .cls-3, .cls-2, .cls-4 {
        stroke: #3aaa35;
        stroke-miterlimit: 10;
        stroke-width: .25px;
      }

      .cls-4 {
        fill: none;
      }
    </style>
  </defs>
  <text class="cls-1" transform="translate(30.85 17.93)"><tspan x="0" y="0">Groene Vingers</tspan></text>
  <path class="cls-3" d="m12.25,20.12l2.43-7.8-2.43,7.8Z"/>
  <path class="cls-2" d="m6.7,10.15l5.54,9.96-5.54-9.96Z"/>
  <path class="cls-4" d="m14.67,12.32s2.74,2.3,4.98,0,1.79-9.13,1.79-9.13c0,0-7.12.37-7.98,3.1s1.21,6.03,1.21,6.03Z"/>
  <path class="cls-4" d="m6.73,10s2.81-2.2,1.48-5.25S.83.15.83.15C.83.15-.96,7.76,1.15,9.49s5.58.51,5.58.51Z"/>
  <path class="cls-4" d="m14.67,12.32s.43-3.36,2.29-4.63c0,0-1.99,1.78-2.29,4.63Z"/>
  <path class="cls-4" d="m6.7,10.15s-1.26-3.85-3.32-5.15c0,0,2.78,2.66,3.32,5.15Z"/>
</svg>