<?xml version="1.0" encoding="UTF-8"?>
<svg id="Laag_1" data-name="Laag 1" xmlns="http://www.w3.org/2000/svg" viewBox="0 0 168.53 28.87">
  <defs>
    <style>
      .cls-1 {
        fill: #1d1d1b;
      }

      .cls-1, .cls-2, .cls-3 {
        stroke: #39a935;
        stroke-miterlimit: 10;
        stroke-width: .5px;
      }

      .cls-2 {
        fill: #39a935;
      }

      .cls-4 {
        fill: #fff;
        font-family: BigCaslon-Medium, 'Big Caslon';
        font-size: 22px;
        font-weight: 500;
      }

      .cls-3 {
        fill: none;
      }
    </style>
  </defs>
  <text class="cls-4" transform="translate(26.97 20.27)"><tspan x="0" y="0">Groene Vingers</tspan></text>
  <path class="cls-2" d="m12.37,20.27l2.43-7.8-2.43,7.8Z"/>
  <path class="cls-1" d="m6.83,10.31l5.54,9.96-5.54-9.96Z"/>
  <path class="cls-3" d="m14.8,12.47s2.74,2.3,4.98,0,1.79-9.13,1.79-9.13c0,0-7.12.37-7.98,3.1s1.21,6.03,1.21,6.03Z"/>
  <path class="cls-3" d="m6.85,10.15s2.81-2.2,1.48-5.25S.96.31.96.31c0,0-1.79,7.61.32,9.33s5.58.51,5.58.51Z"/>
  <path class="cls-3" d="m14.8,12.47s.43-3.36,2.29-4.63c0,0-1.99,1.78-2.29,4.63Z"/>
  <path class="cls-3" d="m6.83,10.31s-1.26-3.85-3.32-5.15c0,0,2.78,2.66,3.32,5.15Z"/>
</svg>