<?xml version="1.0" encoding="UTF-8"?>
<svg id="Laag_1" data-name="Laag 1" xmlns="http://www.w3.org/2000/svg" viewBox="0 0 181.89 246.04">
  <defs>
    <style>
      .cls-1 {
        fill: #1d1d1b;
      }

      .cls-1, .cls-2, .cls-3, .cls-4 {
        stroke-width: 0px;
      }

      .cls-2 {
        fill: #cbbba0;
      }

      .cls-3 {
        fill: #ca9e67;
      }

      .cls-4 {
        fill: #008d36;
      }
    </style>
  </defs>
  <polygon class="cls-3" points="68.97 209.61 80.94 205.34 84.78 197.22 91.19 193.37 94.19 185.68 105.3 181.83 118.97 179.7 127.09 179.7 134.36 186.53 137.35 192.95 142.05 194.65 145.89 200.64 150.23 206.75 132.26 217.18 122.32 222.23 114.43 224.31 109.6 226.71 92.87 224.3 79.85 222.14 65.7 219.74 68.97 209.61"/>
  <path class="cls-4" d="m120.19,179.64s-10.68-58.55-5.13-78.2c5.56-19.66,16.24-64.1,28.2-86.75s-10.26,13.67-10.26,13.67c0,0-25.64,44.87-32.05,81.62-1.19,6.8-2.12,13.68-2.86,20.37-3.26,29.45-2.69,55.27-2.69,55.27l24.79-5.98Z"/>
  <path class="cls-4" d="m85.01,126.07l11.87,4.34-11.87-4.34Z"/>
  <path class="cls-4" d="m95.27,119.25s.97,6.91-3.17,8.98c0,0-3.22,5.76-8.06,6.91s-11.44-.3-14.01-2.57-4.59-13.55-10.02-15.62l-5.44-2.07s5.57-.14,10.66-.84c4-.54,7.71-1.43,8.22-2.84.14-.4.5-.79,1.02-1.13,3.67-2.37,15.6-2.47,20.8,9.18Z"/>
  <path class="cls-4" d="m74.39,110.16s-4.47,3.33-8.01,3.79,5.82,0,5.82,0"/>
  <polyline class="cls-1" points="91.39 129.08 97.91 132.86 98.21 130.13 92.12 127.96"/>
  <polygon class="cls-1" points="116.99 94.17 125.96 91.06 125.11 88.85 118.01 90.44 116.99 94.17"/>
  <path class="cls-4" d="m124.98,90.96s-.51-5.79,4.08-10.04,6.64-6.13,12.59-6.13,13.61,12.08,21.1,9.36c0,0-14.12,7.66-17.36,15.32s-17.19,1.19-19.57-6.3-.85-2.21-.85-2.21Z"/>
  <path class="cls-4" d="m139.46,100.19s6.04-8.38,8.06-9.99-8.06,1.14-8.06,1.14v8.85Z"/>
  <polygon class="cls-1" points="130.03 35.39 121.02 25.8 123.5 24.54 132.33 31.47 130.03 35.39"/>
  <path class="cls-4" d="m123.58,25.38s-4.22,3.99-10.41,3.04-8.92-1.4-12.62-6.06c-3.7-4.67,1.01-18.17-5.77-22.35,0,0,14.77,6.31,22.78,4.09s11.61,12.73,7.22,19.25c-4.39,6.52-1.21,2.04-1.21,2.04Z"/>
  <path class="cls-4" d="m145.04,100.19s5.76-8.47,8.02-9.55-7.26,2.25-7.26,2.25l-.76,7.3Z"/>
  <polygon class="cls-1" points="92.29 128.02 75.7 120.11 91.52 129.16 92.29 128.02"/>
  <polygon class="cls-1" points="124.17 91.68 143.63 86.46 123.33 89.25 125.11 88.85 124.17 91.68"/>
  <polygon class="cls-1" points="125.11 88.85 143.63 86.46 124.09 90.33 124.5 89.07 125.11 88.85"/>
  <polygon class="cls-1" points="122.66 27.55 121.82 26.65 123.82 24.78 124.99 25.71 122.66 27.55"/>
  <polygon class="cls-1" points="123.82 24.78 110.73 12.8 121.82 26.65 123.82 24.78"/>
  <polygon class="cls-1" points="95.37 193.95 94.97 195.28 96.54 195.73 97.46 195.06 96.71 193.95 95.37 193.95"/>
  <polygon class="cls-1" points="110.85 197.7 108.18 199.44 112.74 200.92 111.96 199.31 111.96 198.44 110.85 197.7"/>
  <polygon class="cls-1" points="119.33 186.9 118.68 188.02 119.89 188.51 119.89 187.7 120.21 186.9 119.33 186.9"/>
  <polygon class="cls-1" points="110 188.91 109.03 190.68 110 190.68 111.2 189.79 110 188.91"/>
  <polygon class="cls-1" points="121.09 193.95 121.09 195.18 121.98 195.18 122.71 194.57 122.3 193.57 121.09 193.95"/>
  <polygon class="cls-1" points="96.9 201.29 95.84 202.06 96.54 202.85 97.91 202.85 97.91 202.07 96.9 201.29"/>
  <polygon class="cls-1" points="103.55 206.6 102.54 208.27 104.72 208.27 104.72 206.6 103.55 206.6"/>
  <polygon class="cls-1" points="109.75 206.6 109.75 208.05 110.46 208.05 110.76 207.44 110.76 206.6 109.75 206.6"/>
  <polygon class="cls-1" points="118.68 200.68 118.13 201.29 118.86 202.06 119.81 201.68 119.81 200.68 118.68 200.68"/>
  <polygon class="cls-1" points="128.47 195.98 128.19 197.7 131.21 198.11 131.21 196.26 129.7 195.18 128.47 195.98"/>
  <polygon class="cls-1" points="137.3 203.58 136.18 205.31 139.25 205.31 139.25 204.45 139.25 203.2 137.3 203.58"/>
  <polygon class="cls-1" points="126.63 204.03 126.35 205.03 128.19 205.03 128.19 204.26 127.69 203.58 126.63 204.03"/>
  <polygon class="cls-1" points="119.81 205.76 118.97 206.38 119.81 206.6 121.09 206.18 121.09 205.31 119.81 205.76"/>
  <polygon class="cls-1" points="113.94 209.62 112.74 211.91 115.01 211.91 115.01 210.4 113.94 209.62"/>
  <polygon class="cls-1" points="91.03 210.76 89.81 212.3 92.66 212.3 92.26 211.12 91.03 210.76"/>
  <polygon class="cls-1" points="87.79 203.58 87.24 205.03 88.07 205.03 88.52 204.31 87.79 203.58"/>
  <polygon class="cls-1" points="81.55 209.62 80.76 210.15 82.19 211.11 82.83 210.36 82.83 209.62 81.55 209.62"/>
  <path class="cls-2" d="m0,189.77l10.91,45.59s25.46-3.64,36.62,0,28.13,10.43,43.65,10.67,46.56-10.43,53.35-17.46l37.35-25.95s-.49-6.31-2.91-7.76-11.64-1.21-16.98.24-18.43,11.4-18.43,11.4c0,0-13.82,8.73-21.1,11.4s-25.22,3.39-25.22,3.39l-15.76-3.39-6.55-1.7s-2.91,1.7,0-8.49c0,0,1.94-1.94,8.73-.49s29.59,1.21,37.83-2.43,8.49-.24,15.76-6.79c0,0,2.91-6.55,1.21-9.46s-3.88-4.12-8-3.4-27.16.97-27.16.97l-22.55-1.18s-17.95-7.07-32.98-6.34S0,189.77,0,189.77Z"/>
</svg>